<svg t="1625450951159" class="icon" viewBox="0 0 1024 1024" version="1.1" xmlns="http://www.w3.org/2000/svg" p-id="3831" width="48" height="48"><path d="M663.893333 534.186667l-133.12-41.528889L489.244444 359.537778c-2.844444-8.533333-9.671111-14.222222-18.204444-15.928889-8.533333-1.137778-17.066667 2.275556-22.186667 9.102222L368.64 466.488889l-139.377778-1.706667c-8.533333 0-16.497778 4.551111-20.48 12.515556-3.982222 7.964444-3.413333 17.066667 2.275556 23.893333l83.057778 111.502222-44.373334 132.551111c-2.844444 7.964444-0.568889 17.066667 5.688889 23.324445 6.257778 6.257778 15.36 7.964444 23.324445 5.688889l131.982222-44.942222 111.502222 83.057777c3.982222 2.844444 8.533333 4.551111 13.653333 4.551111 3.413333 0 6.826667-0.568889 10.24-2.275555 7.964444-3.982222 12.515556-11.946667 12.515556-20.48l-1.706667-139.377778 113.777778-80.213333c6.826667-5.12 10.808889-13.653333 9.102222-22.186667-1.706667-8.533333-7.964444-15.36-15.928889-18.204444z m-143.36 90.453333c-6.257778 4.551111-9.671111 11.377778-9.671111 18.773333l1.137778 105.244445-84.195556-62.577778c-3.982222-2.844444-8.533333-4.551111-13.653333-4.551111-2.275556 0-5.12 0.568889-7.395555 1.137778L307.2 716.231111l33.564444-99.555555c2.275556-6.826667 1.137778-14.791111-3.413333-21.048889l-62.577778-84.195556 105.244445 1.137778c7.395556 0 14.791111-3.413333 18.773333-9.671111l60.871111-85.902222L490.951111 517.688889c2.275556 7.395556 7.964444 12.515556 14.791111 14.791111l100.124445 31.288889-85.333334 60.871111z" p-id="3832" fill="#f8ec03"></path><path d="M575.715556 448.284444c4.551111 4.551111 10.24 6.826667 15.928888 6.826667s11.377778-2.275556 15.928889-6.826667l164.977778-164.977777c9.102222-9.102222 9.102222-23.324444 0-32.426667-9.102222-9.102222-23.324444-9.102222-32.426667 0l-164.977777 164.977778c-8.533333 9.102222-8.533333 23.893333 0.568889 32.426666zM540.444444 341.333333c5.688889 0 11.377778-2.275556 15.928889-6.826666l91.022223-91.022223c9.102222-9.102222 9.102222-23.324444 0-32.426666-9.102222-9.102222-23.324444-9.102222-32.426667 0l-91.022222 91.022222c-9.102222 9.102222-9.102222 23.324444 0 32.426667 5.12 4.551111 10.808889 6.826667 16.497777 6.826666zM812.373333 376.604444c-9.102222-9.102222-23.324444-9.102222-32.426666 0l-96.711111 96.711112c-9.102222 9.102222-9.102222 23.324444 0 32.426666 5.12 3.982222 10.808889 6.257778 16.497777 6.257778s11.377778-2.275556 15.928889-6.826667l96.711111-96.711111c9.102222-8.533333 9.102222-23.324444 0-31.857778z" p-id="3833" fill="#f8ec03"></path></svg>
